<svg viewBox="0 0 400 240" xmlns="http://www.w3.org/2000/svg" preserveAspectRatio="xMidYMid meet">
  <defs>
    <linearGradient id="g7" x1="0" y1="0" x2="0" y2="1">
      <stop offset="0" stop-color="#EFF6FF"/><stop offset="1" stop-color="#DBEAFE"/>
    </linearGradient>
    <linearGradient id="metal7" x1="0" y1="0" x2="0" y2="1">
      <stop offset="0" stop-color="#475569"/><stop offset="0.5" stop-color="#1E293B"/><stop offset="1" stop-color="#0F172A"/>
    </linearGradient>
  </defs>
  <rect width="400" height="240" fill="url(#g7)"/>
  <rect x="0" y="135" width="80" height="36" fill="#CBD5E1" stroke="#1F5FA8" stroke-width="1.2"/>
  <rect x="80" y="115" width="14" height="76" fill="url(#metal7)" stroke="#0F172A" stroke-width="1.5"/>
  <!-- gate body (taller than wide - gate valve characteristic) -->
  <rect x="94" y="100" width="120" height="106" rx="3" fill="url(#metal7)" stroke="#0F172A" stroke-width="1.8"/>
  <!-- bonnet -->
  <rect x="124" y="60" width="60" height="40" fill="url(#metal7)" stroke="#0F172A" stroke-width="1.5"/>
  <!-- gate disc indicator -->
  <rect x="148" y="115" width="14" height="76" fill="#94A3B8" stroke="#0F172A" stroke-width="1"/>
  <rect x="214" y="115" width="14" height="76" fill="url(#metal7)" stroke="#0F172A" stroke-width="1.5"/>
  <rect x="228" y="135" width="172" height="36" fill="#CBD5E1" stroke="#1F5FA8" stroke-width="1.2"/>
  <!-- stem rising up -->
  <rect x="150" y="20" width="8" height="40" fill="#0F172A"/>
  <!-- handwheel -->
  <circle cx="154" cy="20" r="22" fill="none" stroke="#0B4F7A" stroke-width="3"/>
  <circle cx="154" cy="20" r="6" fill="#0B4F7A"/>
  <g stroke="#0B4F7A" stroke-width="2.5" stroke-linecap="round">
    <line x1="132" y1="20" x2="146" y2="20"/>
    <line x1="162" y1="20" x2="176" y2="20"/>
    <line x1="154" y1="-2" x2="154" y2="12"/>
    <line x1="154" y1="28" x2="154" y2="42"/>
    <line x1="138" y1="4" x2="148" y2="14"/>
    <line x1="170" y1="36" x2="160" y2="26"/>
    <line x1="138" y1="36" x2="148" y2="26"/>
    <line x1="170" y1="4" x2="160" y2="14"/>
  </g>
  <text x="200" y="226" text-anchor="middle" fill="#0F172A" font-family="monospace" font-size="11" font-weight="700">GATE VALVE · WEDGE · API 600</text>
</svg>