<svg viewBox="0 0 400 240" xmlns="http://www.w3.org/2000/svg" preserveAspectRatio="xMidYMid meet">
  <defs>
    <linearGradient id="g5" x1="0" y1="0" x2="0" y2="1">
      <stop offset="0" stop-color="#F3E8FF"/><stop offset="1" stop-color="#E9D5FF"/>
    </linearGradient>
    <linearGradient id="metal5" x1="0" y1="0" x2="0" y2="1">
      <stop offset="0" stop-color="#A78BFA"/><stop offset="0.5" stop-color="#7C3AED"/><stop offset="1" stop-color="#5B21B6"/>
    </linearGradient>
  </defs>
  <rect width="400" height="240" fill="url(#g5)"/>
  <!-- horizontal -->
  <rect x="0" y="105" width="80" height="36" fill="#CBD5E1" stroke="#1F5FA8" stroke-width="1.2"/>
  <rect x="80" y="85" width="14" height="76" fill="url(#metal5)" stroke="#0B4F7A" stroke-width="1.5"/>
  <rect x="94" y="70" width="160" height="106" rx="6" fill="url(#metal5)" stroke="#0B4F7A" stroke-width="1.8"/>
  <circle cx="174" cy="123" r="25" fill="#94A3B8" stroke="#0B4F7A" stroke-width="1.5"/>
  <!-- T-port: 3 holes -->
  <ellipse cx="174" cy="123" rx="25" ry="8" fill="#7C3AED" opacity="0.7"/>
  <ellipse cx="174" cy="115" rx="8" ry="22" fill="#7C3AED" opacity="0.7" transform="rotate(0 174 115)"/>
  <rect x="254" y="85" width="14" height="76" fill="url(#metal5)" stroke="#0B4F7A" stroke-width="1.5"/>
  <rect x="268" y="105" width="132" height="36" fill="#CBD5E1" stroke="#1F5FA8" stroke-width="1.2"/>
  <!-- vertical port -->
  <rect x="156" y="176" width="36" height="40" fill="url(#metal5)" stroke="#0B4F7A" stroke-width="1.5"/>
  <rect x="146" y="216" width="56" height="14" fill="#CBD5E1" stroke="#1F5FA8" stroke-width="1.2"/>
  <!-- handle -->
  <rect x="170" y="38" width="8" height="32" fill="#0B4F7A"/>
  <rect x="130" y="26" width="100" height="14" rx="3" fill="#FCD34D"/>
  <circle cx="174" cy="33" r="6" fill="#0B4F7A"/>
  <text x="200" y="220" text-anchor="middle" fill="#5B21B6" font-family="monospace" font-size="11" font-weight="700">3-WAY · T-PORT · MULTI-PORT</text>
</svg>