<svg viewBox="0 0 400 240" xmlns="http://www.w3.org/2000/svg" preserveAspectRatio="xMidYMid meet">
  <defs>
    <linearGradient id="g4" x1="0" y1="0" x2="0" y2="1">
      <stop offset="0" stop-color="#FEF3C7"/><stop offset="1" stop-color="#FDE68A"/>
    </linearGradient>
    <linearGradient id="metal4" x1="0" y1="0" x2="0" y2="1">
      <stop offset="0" stop-color="#94A3B8"/><stop offset="0.5" stop-color="#475569"/><stop offset="1" stop-color="#1E293B"/>
    </linearGradient>
    <radialGradient id="hot" cx="0.5" cy="0.5">
      <stop offset="0" stop-color="#F59E0B" stop-opacity="0.6"/><stop offset="1" stop-color="#F59E0B" stop-opacity="0"/>
    </radialGradient>
  </defs>
  <rect width="400" height="240" fill="url(#g4)"/>
  <!-- heat aura -->
  <circle cx="200" cy="130" r="100" fill="url(#hot)"/>
  <rect x="0" y="115" width="80" height="36" fill="#CBD5E1" stroke="#1F5FA8" stroke-width="1.2"/>
  <rect x="80" y="95" width="14" height="76" fill="url(#metal4)" stroke="#0F172A" stroke-width="1.5"/>
  <rect x="94" y="80" width="180" height="106" rx="4" fill="url(#metal4)" stroke="#0F172A" stroke-width="1.8"/>
  <line x1="184" y1="80" x2="184" y2="186" stroke="#0F172A" stroke-width="1" stroke-dasharray="2,2"/>
  <!-- ball with heat treatment indicator -->
  <circle cx="184" cy="133" r="22" fill="#92400E" stroke="#0F172A" stroke-width="1.5"/>
  <ellipse cx="184" cy="133" rx="22" ry="8" fill="#F59E0B" opacity="0.7"/>
  <text x="184" y="137" text-anchor="middle" fill="#FEF3C7" font-family="monospace" font-size="9" font-weight="700">HF</text>
  <rect x="274" y="95" width="14" height="76" fill="url(#metal4)" stroke="#0F172A" stroke-width="1.5"/>
  <rect x="288" y="115" width="112" height="36" fill="#CBD5E1" stroke="#1F5FA8" stroke-width="1.2"/>
  <rect x="180" y="50" width="8" height="32" fill="#0F172A"/>
  <rect x="140" y="38" width="100" height="14" rx="3" fill="#92400E"/>
  <circle cx="184" cy="45" r="6" fill="#0F172A"/>
  <text x="200" y="222" text-anchor="middle" fill="#92400E" font-family="monospace" font-size="11" font-weight="700">METAL SEATED · STELLITE 6 · 500°C</text>
</svg>