<svg viewBox="0 0 400 240" xmlns="http://www.w3.org/2000/svg" preserveAspectRatio="xMidYMid meet">
  <defs>
    <linearGradient id="g6" x1="0" y1="0" x2="0" y2="1">
      <stop offset="0" stop-color="#EFF6FF"/><stop offset="1" stop-color="#DBEAFE"/>
    </linearGradient>
    <linearGradient id="metal6" x1="0" y1="0" x2="0" y2="1">
      <stop offset="0" stop-color="#60A5FA"/><stop offset="0.5" stop-color="#1F5FA8"/><stop offset="1" stop-color="#0B4F7A"/>
    </linearGradient>
  </defs>
  <rect width="400" height="240" fill="url(#g6)"/>
  <!-- pipe LH (smaller) -->
  <rect x="50" y="125" width="80" height="22" fill="#CBD5E1" stroke="#1F5FA8" stroke-width="1.2"/>
  <!-- threaded indication: parallel lines -->
  <g stroke="#0B4F7A" stroke-width="0.8" opacity="0.7">
    <line x1="105" y1="125" x2="105" y2="147"/>
    <line x1="110" y1="125" x2="110" y2="147"/>
    <line x1="115" y1="125" x2="115" y2="147"/>
    <line x1="120" y1="125" x2="120" y2="147"/>
    <line x1="125" y1="125" x2="125" y2="147"/>
  </g>
  <!-- compact body -->
  <rect x="130" y="105" width="140" height="62" rx="6" fill="url(#metal6)" stroke="#0B4F7A" stroke-width="1.8"/>
  <circle cx="200" cy="136" r="14" fill="#94A3B8" stroke="#0B4F7A" stroke-width="1.2"/>
  <ellipse cx="200" cy="136" rx="14" ry="5" fill="#1F5FA8" opacity="0.6"/>
  <!-- threaded RH -->
  <rect x="270" y="125" width="80" height="22" fill="#CBD5E1" stroke="#1F5FA8" stroke-width="1.2"/>
  <g stroke="#0B4F7A" stroke-width="0.8" opacity="0.7">
    <line x1="275" y1="125" x2="275" y2="147"/>
    <line x1="280" y1="125" x2="280" y2="147"/>
    <line x1="285" y1="125" x2="285" y2="147"/>
    <line x1="290" y1="125" x2="290" y2="147"/>
    <line x1="295" y1="125" x2="295" y2="147"/>
  </g>
  <!-- stem and lever -->
  <rect x="196" y="85" width="8" height="22" fill="#0B4F7A"/>
  <rect x="160" y="74" width="80" height="12" rx="3" fill="#FCD34D"/>
  <circle cx="200" cy="80" r="5" fill="#0B4F7A"/>
  <!-- size marker -->
  <text x="200" y="200" text-anchor="middle" fill="#0B4F7A" font-family="monospace" font-size="11" font-weight="700">SMALL BORE · ¼&quot;-2&quot; · BSP/NPT</text>
</svg>