<svg viewBox="0 0 400 240" xmlns="http://www.w3.org/2000/svg" preserveAspectRatio="xMidYMid meet">
  <defs>
    <linearGradient id="g10" x1="0" y1="0" x2="0" y2="1">
      <stop offset="0" stop-color="#FEF3C7"/><stop offset="1" stop-color="#FDE68A"/>
    </linearGradient>
    <linearGradient id="metal10" x1="0" y1="0" x2="0" y2="1">
      <stop offset="0" stop-color="#FB923C"/><stop offset="0.5" stop-color="#B45309"/><stop offset="1" stop-color="#78350F"/>
    </linearGradient>
  </defs>
  <rect width="400" height="240" fill="url(#g10)"/>
  <rect x="0" y="155" width="80" height="36" fill="#CBD5E1" stroke="#1F5FA8" stroke-width="1.2"/>
  <rect x="80" y="135" width="14" height="76" fill="url(#metal10)" stroke="#78350F" stroke-width="1.5"/>
  <rect x="94" y="120" width="180" height="106" rx="4" fill="url(#metal10)" stroke="#78350F" stroke-width="1.8"/>
  <circle cx="184" cy="173" r="22" fill="#94A3B8" stroke="#78350F" stroke-width="1.5"/>
  <ellipse cx="184" cy="173" rx="22" ry="8" fill="#B45309" opacity="0.5"/>
  <rect x="274" y="135" width="14" height="76" fill="url(#metal10)" stroke="#78350F" stroke-width="1.5"/>
  <rect x="288" y="155" width="112" height="36" fill="#CBD5E1" stroke="#1F5FA8" stroke-width="1.2"/>
  <!-- EXTENDED bonnet (cryogenic feature) -->
  <rect x="170" y="36" width="28" height="84" fill="url(#metal10)" stroke="#78350F" stroke-width="1.5"/>
  <!-- cooling fins on extended bonnet -->
  <g stroke="#78350F" stroke-width="1.2" fill="none">
    <line x1="170" y1="50" x2="198" y2="50"/>
    <line x1="170" y1="62" x2="198" y2="62"/>
    <line x1="170" y1="74" x2="198" y2="74"/>
    <line x1="170" y1="86" x2="198" y2="86"/>
    <line x1="170" y1="98" x2="198" y2="98"/>
    <line x1="170" y1="110" x2="198" y2="110"/>
  </g>
  <rect x="180" y="20" width="8" height="20" fill="#78350F"/>
  <rect x="156" y="10" width="56" height="12" rx="3" fill="#FCD34D" stroke="#78350F" stroke-width="1.2"/>
  <text x="200" y="226" text-anchor="middle" fill="#78350F" font-family="monospace" font-size="11" font-weight="700">CRYOGENIC · -196°C · LNG SERVICE</text>
</svg>