<svg viewBox="0 0 400 240" xmlns="http://www.w3.org/2000/svg" preserveAspectRatio="xMidYMid meet">
  <defs>
    <linearGradient id="g3" x1="0" y1="0" x2="0" y2="1">
      <stop offset="0" stop-color="#F1F5F9"/><stop offset="1" stop-color="#CBD5E1"/>
    </linearGradient>
    <linearGradient id="metal3" x1="0" y1="0" x2="0" y2="1">
      <stop offset="0" stop-color="#475569"/><stop offset="0.5" stop-color="#1E293B"/><stop offset="1" stop-color="#0F172A"/>
    </linearGradient>
  </defs>
  <rect width="400" height="240" fill="url(#g3)"/>
  <rect x="0" y="125" width="60" height="38" fill="#CBD5E1" stroke="#1F5FA8" stroke-width="1.2"/>
  <rect x="60" y="100" width="16" height="88" fill="url(#metal3)" stroke="#0F172A" stroke-width="1.8"/>
  <!-- big body -->
  <rect x="76" y="80" width="220" height="128" rx="4" fill="url(#metal3)" stroke="#0F172A" stroke-width="2"/>
  <!-- trunnion supports (vertical bars top and bottom of ball) -->
  <line x1="186" y1="78" x2="186" y2="208" stroke="#1F5FA8" stroke-width="3" opacity="0.8"/>
  <circle cx="186" cy="144" r="32" fill="#64748B" stroke="#0F172A" stroke-width="2"/>
  <ellipse cx="186" cy="144" rx="32" ry="10" fill="#1F5FA8" opacity="0.6"/>
  <!-- many bolts -->
  <g fill="#0F172A">
    <circle cx="100" cy="92" r="3"/><circle cx="140" cy="92" r="3"/>
    <circle cx="180" cy="92" r="3"/><circle cx="220" cy="92" r="3"/><circle cx="260" cy="92" r="3"/>
    <circle cx="100" cy="196" r="3"/><circle cx="140" cy="196" r="3"/>
    <circle cx="180" cy="196" r="3"/><circle cx="220" cy="196" r="3"/><circle cx="260" cy="196" r="3"/>
  </g>
  <rect x="296" y="100" width="16" height="88" fill="url(#metal3)" stroke="#0F172A" stroke-width="1.8"/>
  <rect x="312" y="125" width="88" height="38" fill="#CBD5E1" stroke="#1F5FA8" stroke-width="1.2"/>
  <!-- gear operator on top -->
  <rect x="172" y="40" width="28" height="40" fill="#475569" stroke="#0F172A" stroke-width="1.5"/>
  <circle cx="186" cy="30" r="14" fill="none" stroke="#0B4F7A" stroke-width="2"/>
  <g stroke="#0B4F7A" stroke-width="2" fill="none">
    <line x1="172" y1="30" x2="200" y2="30"/>
    <line x1="186" y1="16" x2="186" y2="44"/>
    <line x1="176" y1="20" x2="196" y2="40"/>
    <line x1="196" y1="20" x2="176" y2="40"/>
  </g>
  <text x="200" y="226" text-anchor="middle" fill="#0F172A" font-family="monospace" font-size="11" font-weight="700">TRUNNION · API 6D · CLASS 600</text>
</svg>