<svg xmlns="http://www.w3.org/2000/svg" xmlns:xlink="http://www.w3.org/1999/xlink" id="Capa_1" viewBox="20.1 -10.0 460 460" style="" xml:space="preserve"><style type="text/css">	.st0{fill:#96BCE5;}	.st1{clip-path:url(#SVGID_00000028293389285023033970000009576526279349472417_);fill:#3D75BA;}	.st2{fill:#3D75BA;}			.st3{clip-path:url(#SVGID_00000169523863405724927080000002316061180491850883_);fill:url(#SVGID_00000057128013713373848240000012295056972260004536_);}	.st4{clip-path:url(#SVGID_00000083807938995984377050000009384473108822567319_);fill:#3D75BA;}</style><g>	<polygon class="st0" points="280.44,129.84 300.47,189.96 320.23,189.96 280.19,310.21 340.31,310.21 380.36,189.96 440.47,189.96   460.5,129.84  "></polygon>	<g>		<defs>			<rect id="SVGID_1_" x="39.5" y="129.84" width="421" height="240.32"></rect>		</defs>		<clipPath id="SVGID_00000159447393895895634090000005042513252083627651_">			<use xlink:href="#SVGID_1_" style="overflow:visible;"></use>		</clipPath>		<path style="clip-path:url(#SVGID_00000159447393895895634090000005042513252083627651_);fill:#3D75BA;" d="M396,278.76h3.21   c3.75,0,6.78-1.28,6.78-4.39c0-2.74-1.96-4.57-6.25-4.57c-1.78,0-3.03,0.18-3.75,0.37V278.76z M395.82,295.58h-6.78V265.6   c2.67-0.37,6.43-0.91,11.24-0.91c5.53,0,8.03,0.91,9.99,2.38c1.78,1.28,3.03,3.47,3.03,6.4c0,3.65-2.67,6.03-6.07,7.13v0.37   c2.85,0.91,4.28,3.29,5.17,7.31c0.89,4.57,1.61,6.22,2.14,7.31h-7.14c-0.89-1.1-1.43-3.65-2.32-7.31   c-0.53-3.11-2.32-4.57-6.07-4.57h-3.21V295.58z M400.28,256.09c-12.67,0-22.49,10.78-22.49,23.95c0,13.35,9.82,23.95,22.85,23.95   c12.67,0.19,22.31-10.6,22.31-23.76c0-13.35-9.64-24.13-22.49-24.13H400.28z M400.64,250.06c16.6,0,29.8,13.16,29.8,29.98   c0,16.82-13.21,30.16-29.98,30.16c-16.77,0-30.16-13.34-30.16-30.16c0-16.82,13.39-29.98,30.16-29.98H400.64z"></path>	</g>	<path class="st2" d="M340.31,310.21h0.21l-0.1-0.32L340.31,310.21z M220.27,129.84l-30.15,90.53l-30.15-90.53H99.82L39.75,310.21  h60.12l30.02-90.15l30.02,90.15h0.28h59.84h0.28l30.04-90.19l29.93,89.87l30.06-90.26l-29.91-89.8H220.27z"></path>	<g>		<defs>			<path id="SVGID_00000106861127787646596650000013816297959637074086_" d="M340.31,310.21h0.21l-0.11-0.32L340.31,310.21z     M220.27,129.84l-30.15,90.53l-30.15-90.53H99.82L39.75,310.21h60.12l30.02-90.15l30.02,90.15h0.28h59.84h0.28l30.04-90.19    l29.93,89.87l30.06-90.26l-29.91-89.8H220.27z"></path>		</defs>		<clipPath id="SVGID_00000157298264236242306010000015723931376774020497_">			<use xlink:href="#SVGID_00000106861127787646596650000013816297959637074086_" style="overflow:visible;"></use>		</clipPath>					<linearGradient id="SVGID_00000116205097728882479350000011669946229960376448_" gradientUnits="userSpaceOnUse" x1="-53.3228" y1="674.7147" x2="-50.6375" y2="674.7147" gradientTransform="matrix(0 67.5744 67.5744 0 -45403.3125 3733.0935)">			<stop offset="0" style="stop-color:#3D75BA"></stop>			<stop offset="0.9763" style="stop-color:#322C68"></stop>			<stop offset="1" style="stop-color:#322C68"></stop>		</linearGradient>					<rect x="39.75" y="129.84" style="clip-path:url(#SVGID_00000157298264236242306010000015723931376774020497_);fill:url(#SVGID_00000116205097728882479350000011669946229960376448_);" width="300.77" height="180.37"></rect>	</g>	</g></svg>